<?xml version="1.0" encoding="UTF-8" standalone="no"?>
<!-- Created with Inkscape (http://www.inkscape.org/) -->

<svg
   width="512"
   height="512"
   viewBox="0 0 512 512"
   version="1.1"
   id="svg1"
   inkscape:export-filename="icon.png"
   inkscape:export-xdpi="96"
   inkscape:export-ydpi="96"
   inkscape:version="1.3 (0e150ed, 2023-07-21)"
   sodipodi:docname="icon.svg"
   xmlns:inkscape="http://www.inkscape.org/namespaces/inkscape"
   xmlns:sodipodi="http://sodipodi.sourceforge.net/DTD/sodipodi-0.dtd"
   xmlns="http://www.w3.org/2000/svg"
   xmlns:svg="http://www.w3.org/2000/svg">
  <sodipodi:namedview
     id="namedview1"
     pagecolor="#ffffff"
     bordercolor="#000000"
     borderopacity="0.25"
     inkscape:showpageshadow="2"
     inkscape:pageopacity="0.0"
     inkscape:pagecheckerboard="0"
     inkscape:deskcolor="#d1d1d1"
     inkscape:document-units="px"
     inkscape:zoom="1.0996094"
     inkscape:cx="255.09059"
     inkscape:cy="376.49734"
     inkscape:window-width="1872"
     inkscape:window-height="1048"
     inkscape:window-x="24"
     inkscape:window-y="16"
     inkscape:window-maximized="1"
     inkscape:current-layer="layer1" />
  <defs
     id="defs1" />
  <g
     inkscape:label="Layer 1"
     inkscape:groupmode="layer"
     id="layer1">
    <path
       style="font-size:203.267px;font-family:IPA明朝;-inkscape-font-specification:IPA明朝;text-align:center;writing-mode:tb-rl;text-anchor:middle;fill:none;fill-opacity:1;stroke:#6e7955;stroke-width:30;stroke-linecap:round;stroke-linejoin:round;stroke-dasharray:none;stroke-opacity:1"
       d="m 229.23083,120.65698 v 92.70399 q 0,6.22817 3.4734,7.78521 4.67112,2.15591 40.00404,2.15591 42.51927,0 49.46608,-2.99432 9.22248,-3.9525 12.57612,-48.86721 l 6.82704,2.39545 q -0.23955,6.58749 -0.23955,14.97158 0,19.52292 2.99432,25.7511 2.1559,4.91068 8.50385,4.91068 -1.07796,12.57611 -12.6959,15.21112 -11.01907,2.1559 -62.88061,2.1559 -50.30447,0 -57.13152,-4.19204 -6.34794,-4.07226 -6.34794,-17.36702 v -92.70398 l -64.31788,8.38408 -2.87454,-6.70726 67.19242,-8.74341 V 35.738225 q 25.99065,1.077953 25.99065,7.066582 0,3.353633 -10.53998,7.4259 v 63.000373 l 102.04623,-13.414519 11.25862,-18.92407 q 11.01908,8.14454 20.1218,17.60656 l -1.91636,5.150219 z m -3.83273,259.18788 h -52.34062 l -2.63499,-6.1084 h 55.93379 q 1.91636,-11.01908 3.59317,-22.03816 2.99432,-17.36703 5.98864,-38.32723 l 0.71863,-6.58749 h -76.53468 l -2.27568,-6.1084 h 162.89071 l 13.29477,-17.12748 2.87453,2.635 q 7.78523,7.06657 14.73203,15.92975 l -2.39546,4.67113 h -96.89601 l -0.71863,6.1084 q -5.38977,35.812 -8.86318,56.17335 l -0.71864,4.67113 h 53.89767 l 10.30045,-12.45635 q 16.04952,12.57612 16.04952,16.1693 0,1.07795 -1.55705,2.1559 l -7.54567,4.67113 v 85.87694 h 24.0743 l 12.69589,-17.36702 q 8.74339,8.38407 15.92976,18.08566 l -2.87455,5.38976 H 148.86341 l -2.75476,-6.1084 h 61.80265 l 1.43727,-7.06658 q 10.0609,-46.95086 16.04953,-83.24194 z m 15.69021,0 -3.9525,22.03815 q -6.94681,37.1295 -12.33658,60.96424 l -1.43727,7.30613 h 75.33695 v -90.30852 z"
       id="path1"
       aria-label="七五" />
    <path
       style="font-size:203.267px;font-family:IPA明朝;-inkscape-font-specification:IPA明朝;text-align:center;writing-mode:tb-rl;text-anchor:middle;fill:#fbfaf5;fill-opacity:1;stroke:#fbfaf5;stroke-width:10;stroke-linecap:round;stroke-linejoin:round;stroke-dasharray:none;stroke-opacity:1"
       d="m 229.23083,120.65698 v 92.70399 q 0,6.22817 3.4734,7.78521 4.67112,2.15591 40.00404,2.15591 42.51927,0 49.46608,-2.99432 9.22248,-3.9525 12.57612,-48.86721 l 6.82704,2.39545 q -0.23955,6.58749 -0.23955,14.97158 0,19.52292 2.99432,25.7511 2.1559,4.91068 8.50385,4.91068 -1.07796,12.57611 -12.6959,15.21112 -11.01907,2.1559 -62.88061,2.1559 -50.30447,0 -57.13152,-4.19204 -6.34794,-4.07226 -6.34794,-17.36702 v -92.70398 l -64.31788,8.38408 -2.87454,-6.70726 67.19242,-8.74341 V 35.738222 q 25.99065,1.077953 25.99065,7.066582 0,3.353633 -10.53998,7.4259 v 63.000376 l 102.04623,-13.414522 11.25862,-18.92407 q 11.01908,8.14454 20.1218,17.60656 l -1.91636,5.150222 z m -3.83273,259.18788 h -52.34062 l -2.63499,-6.1084 h 55.93379 q 1.91636,-11.01908 3.59317,-22.03816 2.99432,-17.36703 5.98864,-38.32723 l 0.71863,-6.58749 h -76.53468 l -2.27568,-6.1084 h 162.89071 l 13.29477,-17.12748 2.87453,2.635 q 7.78523,7.06657 14.73203,15.92975 l -2.39546,4.67113 h -96.89601 l -0.71863,6.1084 q -5.38977,35.812 -8.86318,56.17335 l -0.71864,4.67113 h 53.89767 l 10.30045,-12.45635 q 16.04952,12.57612 16.04952,16.1693 0,1.07795 -1.55705,2.1559 l -7.54567,4.67113 v 85.87694 h 24.0743 l 12.69589,-17.36702 q 8.74339,8.38407 15.92976,18.08566 l -2.87455,5.38976 H 148.86341 l -2.75476,-6.1084 h 61.80265 l 1.43727,-7.06658 q 10.0609,-46.95086 16.04953,-83.24194 z m 15.69021,0 -3.9525,22.03815 q -6.94681,37.1295 -12.33658,60.96424 l -1.43727,7.30613 h 75.33695 v -90.30852 z"
       id="text1"
       aria-label="七五" />
  </g>
</svg>
